<svg width="14" height="24" viewBox="0 0 14 24" fill="none" xmlns="http://www.w3.org/2000/svg">
<path d="M1.82001 15.74C1.82001 15.7667 1.86001 15.8 1.94001 15.84C2.02001 15.8933 2.05334 15.94 2.04001 15.98L1.60001 15.88C1.57334 15.6533 1.51334 15.4333 1.42001 15.22C1.32667 15.02 1.22667 14.8333 1.12001 14.66H1.20001C1.13334 14.5667 1.08667 14.46 1.06001 14.34C1.03334 14.22 1.02001 14.0933 1.02001 13.96C1.02001 13.8933 1.02001 13.8333 1.02001 13.78C1.02001 13.7267 1.02667 13.6733 1.04001 13.62L1.12001 13.7V13.54C1.06667 13.5133 1.02667 13.4467 1.00001 13.34C0.97334 13.2333 0.960007 13.1133 0.960007 12.98C0.960007 12.8467 0.960007 12.7133 0.960007 12.58C0.97334 12.4333 0.980007 12.3067 0.980007 12.2C0.980007 12.1067 0.97334 12.0267 0.960007 11.96C0.960007 11.8933 0.946673 11.8467 0.920007 11.82H0.720007L0.520007 11.6L0.0800067 11.54L6.72787e-06 11.36C0.0666734 11.28 0.11334 11.2 0.140007 11.12C0.166673 11.04 0.240007 10.9933 0.360007 10.98C0.320007 10.9133 0.300007 10.88 0.300007 10.88C0.300007 10.8667 0.300007 10.86 0.300007 10.86C0.31334 10.86 0.320007 10.86 0.320007 10.86C0.346673 10.86 0.380007 10.8733 0.420007 10.9C0.47334 10.9133 0.506673 10.9133 0.520007 10.9L0.480007 10.8L1.08001 10.74C1.04001 10.6733 1.01334 10.6 1.00001 10.52C0.986673 10.4267 0.980007 10.3333 0.980007 10.24C0.980007 10.1733 0.980007 10.1133 0.980007 10.06C0.980007 9.99333 0.986673 9.93333 1.00001 9.88C1.09334 9.88 1.14667 9.86667 1.16001 9.84C1.17334 9.8 1.13334 9.76 1.04001 9.72L1.00001 9.48C1.01334 9.49333 1.02667 9.5 1.04001 9.5C1.06667 9.5 1.08001 9.43333 1.08001 9.3C1.08001 9.19333 1.07334 9.08667 1.06001 8.98C1.04667 8.86 1.04001 8.79333 1.04001 8.78L1.08001 8.84L1.12001 8.76L1.16001 8.24L1.24001 8.32V7.3L1.28001 7.44V7.22L1.24001 7.28L1.20001 7.2C1.25334 7.13333 1.27334 7.06667 1.26001 7C1.24667 6.93333 1.24001 6.86667 1.24001 6.8C1.24001 6.77333 1.24001 6.74667 1.24001 6.72C1.25334 6.69333 1.26667 6.66667 1.28001 6.64H1.36001L1.32001 6.32L1.44001 6.2L1.36001 6.04C1.36001 6.04 1.37334 5.98 1.40001 5.86C1.42667 5.72667 1.45334 5.58667 1.48001 5.44C1.52001 5.28 1.56001 5.17333 1.60001 5.12C1.56001 5.01333 1.54001 4.91333 1.54001 4.82C1.54001 4.68666 1.56667 4.55333 1.62001 4.42C1.67334 4.28667 1.73334 4.17333 1.80001 4.08L1.72001 3.68C1.77334 3.73333 1.80001 3.72 1.80001 3.64C1.80001 3.54667 1.77334 3.53333 1.72001 3.6L1.90001 3.32L1.80001 3.24C1.88001 3.12 1.92667 2.96 1.94001 2.76C1.95334 2.54667 1.97334 2.34667 2.00001 2.16C2.04001 1.96 2.13334 1.82666 2.28001 1.76C2.22667 1.65333 2.20001 1.55333 2.20001 1.46C2.20001 1.32667 2.26667 1.17333 2.40001 0.999998L2.30001 0.919998C2.47334 0.733332 2.60667 0.533332 2.70001 0.319999C2.80667 0.106665 2.93334 -1.90735e-06 3.08001 -1.90735e-06C3.18667 -1.90735e-06 3.30001 0.0599981 3.42001 0.179998C3.55334 0.299998 3.72001 0.506665 3.92001 0.799999L4.10001 0.879999L4.16001 0.719998L4.40001 0.759998L4.56001 0.919998H4.60001L4.88001 1.4L4.80001 1.56L4.92001 1.6L4.80001 1.64C4.80001 1.65333 4.81334 1.67333 4.84001 1.7C4.88001 1.71333 4.90667 1.73333 4.92001 1.76L4.84001 1.8H4.88001C4.98667 1.88 5.04001 2 5.04001 2.16C5.06667 2.2 5.06001 2.34 5.02001 2.58C4.99334 2.80667 4.94667 3.06667 4.88001 3.36C4.81334 3.65333 4.74667 3.92 4.68001 4.16C4.62667 4.4 4.58667 4.54667 4.56001 4.6L4.52001 4.56L4.48001 4.64L4.52001 4.84L4.32001 5.04C4.34667 5.14667 4.33334 5.27333 4.28001 5.42C4.22667 5.55333 4.16667 5.66667 4.10001 5.76L3.92001 5.8L4.02001 5.88C3.92667 5.90667 3.86667 6.01333 3.84001 6.2C3.82667 6.38667 3.77334 6.52 3.68001 6.6H3.64001C3.50667 6.6 3.42667 6.66667 3.40001 6.8L3.28001 6.84L3.48001 6.8C3.49334 6.81333 3.50001 6.83333 3.50001 6.86C3.50001 6.9 3.47334 6.93333 3.42001 6.96C3.38001 6.97333 3.34667 6.95333 3.32001 6.9C3.33334 7.04667 3.30001 7.17333 3.22001 7.28C3.15334 7.38667 3.10667 7.50667 3.08001 7.64H3.04001L3.00001 7.44C3.00001 7.52 2.98667 7.6 2.96001 7.68L3.00001 7.64L3.04001 7.72C2.94667 7.88 2.84001 8.04667 2.72001 8.22C2.61334 8.38 2.50667 8.53333 2.40001 8.68L2.28001 8.62L2.30001 8.78L2.06001 9.1H1.98001V9.16L1.76001 9.68C1.77334 9.72 1.78001 9.76 1.78001 9.8C1.78001 9.84 1.78001 9.88 1.78001 9.92C1.78001 10.0933 1.75334 10.2667 1.70001 10.44C1.66001 10.6 1.61334 10.7533 1.56001 10.9L1.68001 10.98C1.73334 11.0467 1.74667 11.1 1.72001 11.14C1.69334 11.1667 1.68001 11.1933 1.68001 11.22V11.3C1.70667 11.3 1.72667 11.2867 1.74001 11.26C1.76667 11.22 1.78667 11.2 1.80001 11.2L1.84001 11.3C1.93334 11.22 2.05334 11.1267 2.20001 11.02C2.34667 10.9 2.48001 10.8333 2.60001 10.82L2.64001 10.72L2.84001 10.66L3.00001 10.48L3.04001 10.5C3.04001 10.3267 3.13334 10.2667 3.32001 10.32C3.38667 10.0533 3.52001 9.87333 3.72001 9.78C3.92001 9.67333 4.12667 9.6 4.34001 9.56C4.34001 9.53333 4.35334 9.50667 4.38001 9.48C4.40667 9.44 4.41334 9.41333 4.40001 9.4C4.38667 9.37333 4.36001 9.36 4.32001 9.36C4.28001 9.36 4.25334 9.35333 4.24001 9.34H4.26001C4.32667 9.27333 4.39334 9.23333 4.46001 9.22C4.54001 9.19333 4.61334 9.15333 4.68001 9.1L4.56001 9.02C4.66667 8.95333 4.78667 8.84667 4.92001 8.7C4.94667 8.74 4.96667 8.76 4.98001 8.76C5.02001 8.76 5.05334 8.74 5.08001 8.7C5.12001 8.66 5.12001 8.62667 5.08001 8.6C5.20001 8.53333 5.26001 8.44 5.26001 8.32L5.40001 8.36L5.64001 7.92H5.74001C5.80667 7.84 5.86667 7.76 5.92001 7.68C5.98667 7.58667 6.05334 7.50667 6.12001 7.44C6.12001 7.42667 6.12001 7.42 6.12001 7.42C6.13334 7.42 6.14001 7.42 6.14001 7.42C6.16667 7.42 6.19334 7.44667 6.22001 7.5C6.24667 7.54 6.24667 7.57333 6.22001 7.6C6.08667 7.65333 5.98001 7.79333 5.90001 8.02C5.82001 8.24667 5.68667 8.41333 5.50001 8.52V8.68L5.24001 8.86C5.21334 9.07333 5.10667 9.26667 4.92001 9.44C4.74667 9.6 4.58667 9.74667 4.44001 9.88L4.52001 9.92L4.26001 9.96L4.40001 10.08H4.34001C4.26001 10.1867 4.16001 10.3067 4.04001 10.44C3.92001 10.56 3.78001 10.6333 3.62001 10.66V10.82C3.51334 10.8867 3.40667 10.98 3.30001 11.1C3.19334 11.2067 3.10667 11.32 3.04001 11.44C2.98667 11.44 2.96001 11.42 2.96001 11.38L2.72001 11.54V11.58C2.72001 11.6467 2.68001 11.7 2.60001 11.74L2.64001 11.98H2.72001C2.76001 11.98 2.80001 11.98 2.84001 11.98C2.88001 11.98 2.92001 11.9733 2.96001 11.96V11.98C2.96001 12.02 2.98667 12.0533 3.04001 12.08C3.09334 12.1067 3.14667 12.12 3.20001 12.12C3.21334 12.1733 3.22667 12.2333 3.24001 12.3C3.26667 12.3667 3.30667 12.4133 3.36001 12.44L3.52001 12.36L3.60001 12.54L3.54001 12.58L3.52001 12.6H3.54001C3.56667 12.6 3.60001 12.5867 3.64001 12.56C3.68001 12.52 3.69334 12.4867 3.68001 12.46C3.78667 12.6067 3.92667 12.7267 4.10001 12.82C4.27334 12.9 4.34667 13.0467 4.32001 13.26H4.60001C4.70667 13.3267 4.86001 13.4467 5.06001 13.62C5.26001 13.7933 5.37334 13.9533 5.40001 14.1L5.58001 14.16L5.88001 14.58L6.20001 14.74L6.30001 15.18C6.28667 15.18 6.27334 15.18 6.26001 15.18C6.26001 15.1933 6.25334 15.2 6.24001 15.2C6.14667 15.2 6.06001 15.1467 5.98001 15.04C5.91334 14.9333 5.86001 14.8533 5.82001 14.8C5.82001 14.8133 5.78001 14.8333 5.70001 14.86C5.63334 14.8867 5.62001 14.8667 5.66001 14.8L5.42001 14.66L5.40001 14.48L5.08001 14.42C5.06667 14.42 5.06667 14.42 5.08001 14.42C5.09334 14.4067 5.10001 14.4 5.10001 14.4C5.10001 14.3733 5.07334 14.3467 5.02001 14.32C4.98001 14.2933 4.94667 14.2933 4.92001 14.32C4.86667 14.2933 4.80001 14.2533 4.72001 14.2C4.65334 14.1467 4.61334 14.0867 4.60001 14.02C4.60001 14.0333 4.58667 14.0333 4.56001 14.02C4.53334 14.0067 4.53334 14 4.56001 14C4.40001 13.9467 4.32001 13.8667 4.32001 13.76H4.08001L3.94001 13.54C3.83334 13.5667 3.72667 13.5333 3.62001 13.44C3.52667 13.3467 3.42667 13.2867 3.32001 13.26L3.36001 13.16L2.96001 13.02L2.92001 12.92L2.68001 12.84C2.72001 12.8133 2.74001 12.7933 2.74001 12.78C2.74001 12.7267 2.68667 12.68 2.58001 12.64C2.47334 12.5867 2.40001 12.5533 2.36001 12.54V12.62C2.34667 12.6333 2.32667 12.6333 2.30001 12.62C2.27334 12.6067 2.26667 12.6 2.28001 12.6L1.90001 12.38C1.94001 12.38 1.96667 12.3667 1.98001 12.34C2.00667 12.3133 2.00001 12.2933 1.96001 12.28L1.64001 12.3L1.60001 13.86C1.65334 13.9 1.68667 13.9733 1.70001 14.08C1.71334 14.1733 1.72001 14.2533 1.72001 14.32L1.60001 14.48C1.66667 14.48 1.72001 14.46 1.76001 14.42C1.76001 14.5533 1.76001 14.6867 1.76001 14.82C1.77334 14.9533 1.78667 15.0867 1.80001 15.22L1.90001 15.3L1.98001 15.7C1.87334 15.7 1.82001 15.7133 1.82001 15.74ZM2.04001 8.24C2.00001 8.29333 1.97334 8.35333 1.96001 8.42C1.96001 8.48667 1.96001 8.55333 1.96001 8.62H1.98001C2.02001 8.62 2.05334 8.59333 2.08001 8.54C2.12001 8.48667 2.14001 8.44 2.14001 8.4H2.36001C2.32001 8.32 2.30001 8.23333 2.30001 8.14C2.30001 7.9 2.44001 7.70667 2.72001 7.56V7.52C2.72001 7.42667 2.74667 7.33333 2.80001 7.24C2.85334 7.13333 2.90667 7.04667 2.96001 6.98H3.04001L3.08001 6.9C3.04001 6.87333 3.02001 6.86 3.02001 6.86C3.02001 6.84667 3.02667 6.81333 3.04001 6.76C3.18667 6.54667 3.29334 6.4 3.36001 6.32C3.42667 6.24 3.46667 6.09333 3.48001 5.88C3.57334 5.78667 3.60667 5.72 3.58001 5.68C3.55334 5.62667 3.64001 5.54667 3.84001 5.44C3.78667 5.44 3.76001 5.41333 3.76001 5.36C3.82667 5.30667 3.85334 5.20667 3.84001 5.06C3.84001 4.9 3.92667 4.76 4.10001 4.64L4.02001 4.56C4.12667 4.48 4.19334 4.34666 4.22001 4.16C4.26001 3.97333 4.29334 3.82666 4.32001 3.72C4.37334 3.72 4.40001 3.72666 4.40001 3.74C4.40001 3.75333 4.41334 3.73333 4.44001 3.68L4.34001 3.48C4.40667 3.45333 4.44667 3.42666 4.46001 3.4C4.48667 3.37333 4.50667 3.33333 4.52001 3.28L4.40001 3.24L4.44001 3.08L4.56001 3.04C4.50667 2.97333 4.48667 2.84 4.50001 2.64C4.51334 2.44 4.50667 2.29333 4.48001 2.2C4.42667 1.96 4.33334 1.73333 4.20001 1.52C4.06667 1.30667 3.94667 1.09333 3.84001 0.879999H3.76001V0.959999C3.76001 1.06666 3.73334 1.13333 3.68001 1.16C3.65334 1.14666 3.63334 1.15333 3.62001 1.18C3.60667 1.20666 3.60001 1.22666 3.60001 1.24C3.64001 1.28 3.66001 1.32 3.66001 1.36C3.66001 1.42667 3.63334 1.5 3.58001 1.58C3.52667 1.64666 3.48001 1.69333 3.44001 1.72C3.46667 1.8 3.48001 1.86 3.48001 1.9C3.48001 2.03333 3.44001 2.16 3.36001 2.28C3.28001 2.38667 3.22667 2.50667 3.20001 2.64C3.22667 2.66666 3.24001 2.68 3.24001 2.68C3.25334 2.66666 3.26667 2.68 3.28001 2.72L3.16001 2.76C3.21334 2.76 3.24001 2.8 3.24001 2.88L3.08001 3.04C3.10667 3.10666 3.09334 3.26 3.04001 3.5C2.98667 3.74 2.92667 3.98 2.86001 4.22C2.80667 4.46 2.76001 4.62667 2.72001 4.72H2.64001C2.62667 4.66666 2.60001 4.62666 2.56001 4.6V4.68C2.56001 4.69333 2.56001 4.70666 2.56001 4.72C2.57334 4.72 2.58001 4.72666 2.58001 4.74C2.58001 4.74 2.57334 4.75333 2.56001 4.78C2.54667 4.79333 2.52001 4.82667 2.48001 4.88C2.50667 4.93333 2.52001 4.98667 2.52001 5.04C2.52001 5.08 2.52001 5.13333 2.52001 5.2C2.52001 5.33333 2.50667 5.47333 2.48001 5.62C2.45334 5.75333 2.44001 5.89333 2.44001 6.04L2.28001 6C2.30667 6.37333 2.28667 6.74667 2.22001 7.12C2.15334 7.48 2.04667 7.84 1.90001 8.2L2.04001 8.24ZM7.02313 23.42C6.9298 23.42 6.84313 23.3933 6.76313 23.34C6.68313 23.2867 6.6098 23.2267 6.54313 23.16C6.5698 23.1467 6.5698 23.1267 6.54313 23.1C6.51647 23.0733 6.4898 23.0733 6.46313 23.1L6.42313 22.92L6.30313 22.88C6.27647 22.8133 6.25647 22.7867 6.24313 22.8C6.1898 22.6133 6.11647 22.44 6.02313 22.28C5.9298 22.1333 5.87647 21.9667 5.86313 21.78C5.86313 21.7667 5.86313 21.7333 5.86313 21.68C5.87647 21.64 5.87647 21.58 5.86313 21.5C5.86313 21.4733 5.8498 21.4467 5.82313 21.42C5.8098 21.3933 5.80313 21.3733 5.80313 21.36L5.86313 21.32C5.8498 21.2533 5.83647 21.18 5.82313 21.1C5.8098 21.02 5.80313 20.94 5.80313 20.86C5.80313 20.8067 5.80313 20.76 5.80313 20.72C5.81647 20.68 5.8298 20.64 5.84313 20.6H5.90313C5.8498 20.5333 5.82313 20.44 5.82313 20.32C5.82313 20.12 5.87647 19.98 5.98313 19.9L5.94313 19.82L5.98313 19.54C6.0098 19.5533 6.03647 19.5467 6.06313 19.52C6.0898 19.4933 6.10313 19.4733 6.10313 19.46L6.06313 19.44L6.20313 19.12L6.14313 19.08C6.31647 18.8667 6.4498 18.6467 6.54313 18.42L6.60313 18.38L6.56313 18.36L6.68313 18.16L6.76313 18.18C6.7898 18.0733 6.84313 17.9733 6.92313 17.88C7.00313 17.7867 7.08313 17.7067 7.16313 17.64L7.10313 17.6L7.30313 17.46V17.38L7.68313 16.98V17.1H7.74313C7.7698 17.0067 7.8098 16.94 7.86313 16.9C7.9298 16.8733 7.92313 16.84 7.84313 16.8L8.10313 16.58L8.14313 16.6L8.12313 16.58L8.36313 16.34V16.36C8.36313 16.3733 8.3698 16.38 8.38313 16.38C8.4098 16.38 8.46313 16.3467 8.54313 16.28C8.63647 16.2133 8.73647 16.1467 8.84313 16.08H8.92313L8.88313 16.02H8.96313C8.9898 15.9933 8.98313 15.9733 8.94313 15.96C8.90313 15.9467 8.87647 15.9333 8.86313 15.92H8.88313L9.68313 15.22L9.82313 15.3C9.83647 15.3 9.84313 15.2733 9.84313 15.22C9.84313 15.18 9.82313 15.1667 9.78313 15.18L10.0031 15.04C9.9898 15.0533 10.0031 15.0467 10.0431 15.02C10.0831 14.98 10.0898 14.9533 10.0631 14.94C10.1165 14.8867 10.1698 14.8133 10.2231 14.72C10.2765 14.6133 10.2831 14.5533 10.2431 14.54L10.4031 13.9L10.5231 13.86C10.5098 13.66 10.5231 13.5 10.5631 13.38C10.6031 13.2467 10.6298 13.1133 10.6431 12.98L10.5831 12.84L10.7031 12.54H10.7431L10.7631 12.52H10.6631L10.7031 11.32C10.7298 11.3467 10.7565 11.3533 10.7831 11.34C10.8098 11.3133 10.8365 11.2933 10.8631 11.28C10.8898 11.2667 10.9031 11.2533 10.9031 11.24C10.9031 11.2267 10.8765 11.22 10.8231 11.22C10.7831 11.22 10.7565 11.2133 10.7431 11.2V11.02H10.7831L10.7631 11.08L10.8031 11.06C10.8165 11.0333 10.8165 11.0133 10.8031 11C10.7898 10.9733 10.7698 10.9667 10.7431 10.98V10.74C10.7965 10.7667 10.8365 10.76 10.8631 10.72L10.8231 10.08V10.1C10.8098 10.1 10.7965 10.0667 10.7831 10C10.7831 9.92 10.7831 9.86667 10.7831 9.84C10.7698 9.77333 10.8098 9.72 10.9031 9.68C10.9965 9.62667 10.9631 9.60667 10.8031 9.62L10.7431 9.34H10.8031V9.06C10.8031 8.92667 10.7631 8.86 10.6831 8.86C10.6298 8.86 10.5565 8.88667 10.4631 8.94C10.3298 9.15333 10.1965 9.36 10.0631 9.56C9.9298 9.76 9.8098 9.97333 9.70313 10.2H9.62313L9.56313 10.4C9.5498 10.3867 9.5298 10.38 9.50313 10.38C9.47647 10.38 9.45647 10.4 9.44313 10.44C9.4298 10.48 9.4498 10.5133 9.50313 10.54L9.28313 10.8L9.08313 10.86L9.12313 11.02L8.94313 11.2L9.00313 11.24L8.58313 11.66L8.54313 11.72L8.52313 11.74C8.53647 11.74 8.54313 11.74 8.54313 11.74V11.72L8.58313 11.7C8.58313 11.7533 8.5498 11.78 8.48313 11.78L8.52313 11.74C8.48313 11.7267 8.46313 11.7133 8.46313 11.7L8.44313 11.78C8.45647 11.78 8.4698 11.78 8.48313 11.78L8.22313 11.98L8.30313 12.04C8.2898 12.0533 8.27647 12.0733 8.26313 12.1C8.2498 12.1133 8.2498 12.12 8.26313 12.12L7.90313 12.48H7.80313C7.7498 12.5733 7.6698 12.68 7.56313 12.8C7.45647 12.9067 7.34313 12.96 7.22313 12.96C7.2098 12.9467 7.1898 12.9267 7.16313 12.9C7.13647 12.8733 7.11647 12.8733 7.10313 12.9V12.98C7.10313 12.9933 7.1098 12.9867 7.12313 12.96C7.13647 12.9333 7.14313 12.9267 7.14313 12.94C7.1698 12.9533 7.17647 12.9733 7.16313 13C7.16313 12.9867 7.1698 12.9733 7.18313 12.96C7.18313 12.96 7.18313 12.9733 7.18313 13C7.19647 13.0267 7.19647 13.0467 7.18313 13.06L7.06313 13.08L7.04313 13.02L7.02313 13.14L6.64313 13.22L6.58313 13.12L6.32313 13.1H6.30313C6.30313 13.1 6.33647 13.1133 6.40313 13.14C6.48313 13.1667 6.5098 13.1933 6.48313 13.22C6.4698 13.2333 6.45647 13.24 6.44313 13.24C6.37647 13.24 6.2898 13.2067 6.18313 13.14C6.0898 13.06 6.03647 13.0133 6.02313 13C6.02313 13.0133 6.01647 13.02 6.00313 13.02C5.97647 13.02 5.9298 12.9933 5.86313 12.94C5.8098 12.8867 5.7698 12.84 5.74313 12.8C5.7298 12.7733 5.74313 12.76 5.78313 12.76C5.83647 12.76 5.8498 12.7467 5.82313 12.72L5.62313 12.42C5.6498 12.4467 5.67647 12.4467 5.70313 12.42C5.7298 12.38 5.73647 12.3467 5.72313 12.32L5.62313 12.12L5.68313 11.92C5.68313 11.9067 5.68313 11.9 5.68313 11.9L5.94313 11.24L5.90313 11.2L6.08313 11C6.0698 10.9733 6.06313 10.94 6.06313 10.9C6.06313 10.82 6.0898 10.7467 6.14313 10.68C6.19647 10.6 6.2298 10.5267 6.24313 10.46C6.25647 10.46 6.29647 10.4267 6.36313 10.36C6.4298 10.2933 6.4698 10.2533 6.48313 10.24L6.64313 9.86L6.70313 9.94C6.71647 9.78 6.7698 9.66667 6.86313 9.6C6.9698 9.52 7.07647 9.44667 7.18313 9.38C7.18313 9.18 7.2898 9.04667 7.50313 8.98V8.96C7.50313 8.89333 7.54313 8.84 7.62313 8.8C7.7698 8.77333 7.84313 8.72667 7.84313 8.66C7.84313 8.59333 7.91647 8.51333 8.06313 8.42C8.11647 8.38 8.14313 8.39333 8.14313 8.46C8.14313 8.51333 8.14313 8.54 8.14313 8.54H8.22313V8.28C8.23647 8.25333 8.31647 8.22 8.46313 8.18C8.62313 8.14 8.68313 8.08667 8.64313 8.02L8.82313 7.94C8.87647 8.02 8.91647 8.02667 8.94313 7.96C8.9698 7.89333 8.9498 7.86667 8.88313 7.88C8.9898 7.85333 9.07647 7.81333 9.14313 7.76C9.22313 7.70667 9.32313 7.69333 9.44313 7.72L9.50313 7.58L9.80313 7.52L9.82313 7.56L10.1231 7.48V7.54L10.1831 7.48C10.2098 7.49333 10.2231 7.52 10.2231 7.56C10.2365 7.58667 10.2698 7.59333 10.3231 7.58L10.4231 7.48L10.5231 7.64L10.7031 7.68C10.7031 7.65333 10.7298 7.64 10.7831 7.64C10.8231 7.64 10.8631 7.65333 10.9031 7.68C10.9431 7.70667 10.9431 7.73333 10.9031 7.76L11.1631 7.82C11.1765 7.83333 11.2165 7.9 11.2831 8.02C11.3631 8.12667 11.4165 8.19333 11.4431 8.22C11.4431 8.22 11.4365 8.26667 11.4231 8.36C11.4098 8.44 11.3898 8.50667 11.3631 8.56C11.3365 8.61333 11.3031 8.59333 11.2631 8.5L11.1631 8.68L11.2031 8.86L11.1631 8.8V8.88L11.3431 9.24L11.2831 9.26L11.3631 9.46L11.2631 9.5L11.3431 9.58V10.06C11.3965 10.06 11.4231 10.1133 11.4231 10.22C11.4231 10.3 11.4031 10.38 11.3631 10.46L11.4031 10.68L11.3231 10.86H11.3831C11.3831 10.9 11.3831 10.9667 11.3831 11.06C11.3965 11.14 11.4031 11.2267 11.4031 11.32C11.4031 11.5333 11.3831 11.68 11.3431 11.76C11.3165 11.8133 11.3165 11.8533 11.3431 11.88L11.3031 12.1C11.3031 12.1133 11.2965 12.1333 11.2831 12.16C11.2831 12.1733 11.2965 12.2 11.3231 12.24L11.2431 12.6L11.2231 12.56L11.1231 12.86C11.1498 12.8733 11.1631 12.9533 11.1631 13.1C11.1631 13.2333 11.1631 13.3133 11.1631 13.34L11.0431 13.36L11.0631 13.4H11.1631L11.1431 13.48L11.1031 13.46L11.0831 13.64L11.1231 13.7C11.1098 13.7533 11.0965 13.7933 11.0831 13.82C11.0831 13.8467 11.0831 13.8733 11.0831 13.9C11.0831 13.9667 11.1165 13.9733 11.1831 13.92C11.2631 13.8667 11.3431 13.7867 11.4231 13.68C11.5031 13.5733 11.5431 13.5 11.5431 13.46C11.5565 13.4333 11.5765 13.4133 11.6031 13.4C11.6298 13.3867 11.6498 13.3867 11.6631 13.4L11.8431 13.12L11.9031 13.14L12.0031 12.88C12.0165 12.88 12.0231 12.8867 12.0231 12.9C12.0231 12.9 12.0298 12.9 12.0431 12.9C12.0698 12.9 12.1031 12.88 12.1431 12.84C12.1831 12.7867 12.2165 12.7533 12.2431 12.74C12.2565 12.74 12.2498 12.74 12.2231 12.74C12.2098 12.74 12.2031 12.7333 12.2031 12.72L12.2431 12.66L12.1631 12.64L12.3031 12.48L12.3231 12.52L12.4231 12.3C12.4098 12.2867 12.4098 12.28 12.4231 12.28V12.3C12.4231 12.3133 12.4298 12.3267 12.4431 12.34C12.4565 12.34 12.4631 12.3267 12.4631 12.3L12.8031 11.58C12.8298 11.5667 12.8365 11.58 12.8231 11.62C12.8231 11.6467 12.8231 11.66 12.8231 11.66H12.9431C12.9431 11.66 12.9365 11.6267 12.9231 11.56C12.9231 11.4933 12.9031 11.4667 12.8631 11.48C12.9031 11.3333 12.9831 11.2133 13.1031 11.12C13.0898 11.1067 13.0965 11.0867 13.1231 11.06C13.1498 11.0333 13.1831 11.0333 13.2231 11.06L13.1831 11.6C13.0898 11.6 13.0565 11.6133 13.0831 11.64C13.1098 11.6667 13.1365 11.6667 13.1631 11.64L13.1031 11.82H12.9831C12.9831 11.8333 12.9898 11.8533 13.0031 11.88C13.0165 11.9067 13.0231 11.9267 13.0231 11.94L12.9431 11.96L12.8431 12.36C12.8431 12.36 12.8165 12.3933 12.7631 12.46C12.7098 12.5133 12.6565 12.5333 12.6031 12.52L12.5631 12.84H12.4831C12.3898 12.9333 12.3031 13.0467 12.2231 13.18C12.1431 13.3133 12.0765 13.4467 12.0231 13.58L11.9431 13.56C11.9431 13.6933 11.8698 13.82 11.7231 13.94C11.5765 14.06 11.4698 14.1733 11.4031 14.28C11.3631 14.24 11.3365 14.22 11.3231 14.22C11.2831 14.22 11.2698 14.2733 11.2831 14.38C11.2965 14.4733 11.2698 14.4733 11.2031 14.38L10.9031 14.72L10.8631 15.16L10.7631 15.18C10.7098 15.3133 10.6831 15.4733 10.6831 15.66C10.6831 15.7667 10.6965 15.84 10.7231 15.88C10.7098 15.8933 10.6965 15.92 10.6831 15.96C10.6698 16.0133 10.6631 16.0267 10.6631 16L10.6231 16.32C10.5565 16.3067 10.5098 16.3533 10.4831 16.46C10.4565 16.58 10.4365 16.7067 10.4231 16.84C10.4231 16.9733 10.4231 17.0533 10.4231 17.08L10.3631 17.1C10.3631 17.1133 10.3765 17.14 10.4031 17.18C10.4298 17.22 10.4031 17.2533 10.3231 17.28V17.5H10.2831C10.2431 17.5 10.2298 17.52 10.2431 17.56C10.2565 17.6133 10.2698 17.6533 10.2831 17.68C10.2831 17.7067 10.2631 17.7733 10.2231 17.88C10.1965 18 10.1631 18.1067 10.1231 18.2C10.0965 18.3067 10.0765 18.3667 10.0631 18.38L10.0431 18.56L10.0031 18.48C9.97647 18.5467 9.92313 18.6733 9.84313 18.86C9.77647 19.0467 9.78313 19.1733 9.86313 19.24L9.78313 19.48L9.74313 19.46L9.68313 19.62L9.74313 19.64L9.58313 19.86C9.58313 19.8467 9.5698 19.84 9.54313 19.84C9.5298 19.84 9.5298 19.8533 9.54313 19.88L9.58313 19.96L9.64313 19.9V19.96L9.50313 20.08L9.56313 20.18L9.44313 20.32C9.45647 20.3333 9.46313 20.3533 9.46313 20.38C9.46313 20.42 9.4498 20.4533 9.42313 20.48C9.4098 20.52 9.39647 20.5533 9.38313 20.58L9.34313 20.52L9.30313 20.54L9.38313 20.78C9.3698 20.7933 9.34313 20.7867 9.30313 20.76C9.27647 20.7333 9.26313 20.7467 9.26313 20.8L9.28313 21.06L9.26313 21.04C9.23647 21.04 9.2098 21.0667 9.18313 21.12C9.15647 21.1867 9.1698 21.2333 9.22313 21.26L9.06313 21.48L9.12313 21.5L9.00313 21.84C8.9898 21.7733 8.9698 21.7733 8.94313 21.84C8.9298 21.9067 8.9498 21.92 9.00313 21.88C8.9498 21.92 8.89647 21.9733 8.84313 22.04C8.7898 22.12 8.76313 22.1933 8.76313 22.26C8.77647 22.2733 8.78313 22.3133 8.78313 22.38C8.78313 22.4733 8.7498 22.52 8.68313 22.52L8.40313 23.04V23.02C8.3898 23.02 8.35647 23.06 8.30313 23.14C8.2498 23.22 8.22313 23.26 8.22313 23.26C8.1698 23.3 8.0698 23.34 7.92313 23.38C7.77647 23.42 7.6298 23.4333 7.48313 23.42C7.48313 23.3533 7.43647 23.3133 7.34313 23.3C7.2498 23.2867 7.2098 23.2533 7.22313 23.2L7.18313 22.92C7.30313 22.8667 7.3498 22.82 7.32313 22.78C7.3098 22.7533 7.3098 22.7133 7.32313 22.66L7.44313 22.38H7.52313C7.5098 22.3533 7.50313 22.32 7.50313 22.28C7.50313 22.1867 7.53647 22.0933 7.60313 22L7.76313 21.94C7.8298 21.8467 7.81647 21.7867 7.72313 21.76C7.7498 21.6533 7.79647 21.5467 7.86313 21.44C7.9298 21.3467 7.9698 21.24 7.98313 21.12H8.08313L8.12313 20.8C8.13647 20.8 8.14313 20.8 8.14313 20.8C8.15647 20.8133 8.1698 20.82 8.18313 20.82C8.2498 20.82 8.28313 20.7733 8.28313 20.68C8.28313 20.6 8.2898 20.54 8.30313 20.5L8.42313 20.46L8.46313 20.42C8.3698 20.3533 8.3298 20.3467 8.34313 20.4C8.35647 20.4667 8.3298 20.4933 8.26313 20.48L8.36313 20.26H8.42313L8.40313 20.1C8.41647 19.9667 8.45647 19.84 8.52313 19.72C8.60313 19.6133 8.6698 19.5 8.72313 19.38H8.82313L8.76313 19.26H8.82313L8.88313 19.18L8.82313 19.14C8.75647 19.1933 8.7298 19.18 8.74313 19.1C8.7698 19.0333 8.81647 18.9333 8.88313 18.8C8.9498 18.68 9.01647 18.5533 9.08313 18.42C9.16313 18.3 9.2098 18.22 9.22313 18.18C9.22313 18.1533 9.21647 18.1133 9.20313 18.06C9.1898 18.0067 9.2098 17.9933 9.26313 18.02L9.42313 17.58L9.46313 17.62C9.47647 17.6067 9.48313 17.5867 9.48313 17.56C9.48313 17.5333 9.48313 17.5067 9.48313 17.48L9.54313 17.04C9.5698 17.0667 9.57647 17.06 9.56313 17.02C9.56313 16.9933 9.56313 16.98 9.56313 16.98L9.62313 17L9.66313 16.64C9.7298 16.6133 9.76313 16.5867 9.76313 16.56C9.76313 16.5333 9.74313 16.5333 9.70313 16.56L9.88313 15.96L9.96313 15.92L9.92313 15.84H9.94313L10.0431 15.74C10.0431 15.7267 10.0298 15.7267 10.0031 15.74C9.9898 15.7667 9.97647 15.7733 9.96313 15.76V15.74C9.96313 15.7133 9.9698 15.66 9.98313 15.58C10.0098 15.5133 10.0298 15.4733 10.0431 15.46C9.97647 15.5133 9.85647 15.6067 9.68313 15.74C9.52313 15.8733 9.4098 15.9467 9.34313 15.96C9.34313 15.9467 9.33647 15.9267 9.32313 15.9C9.32313 15.8867 9.31647 15.8867 9.30313 15.9L9.32313 16.04L9.18313 16.14C9.1698 16.1133 9.14313 16.1 9.10313 16.1C9.07647 16.1 9.05647 16.1133 9.04313 16.14L8.96313 16.36C8.9498 16.3467 8.9298 16.34 8.90313 16.34C8.86313 16.34 8.81647 16.3533 8.76313 16.38C8.72313 16.4067 8.70313 16.44 8.70313 16.48L8.72313 16.54H8.68313L8.24313 16.96L8.26313 17.12C8.2498 17.1333 8.22313 17.1267 8.18313 17.1C8.14313 17.0733 8.12313 17.06 8.12313 17.06L8.14313 17.16L7.92313 17.46C7.9098 17.4467 7.89647 17.44 7.88313 17.44C7.84313 17.44 7.79647 17.5 7.74313 17.62C7.70313 17.74 7.65647 17.82 7.60313 17.86L7.62313 17.74H7.56313C7.5098 17.8333 7.4898 17.9133 7.50313 17.98C7.51647 18.0467 7.48313 18.0733 7.40313 18.06C7.37647 18.0467 7.3698 18.06 7.38313 18.1C7.4098 18.1533 7.4298 18.1867 7.44313 18.2C7.44313 18.2133 7.41647 18.2267 7.36313 18.24C7.32313 18.2667 7.29647 18.2867 7.28313 18.3C7.2698 18.3133 7.26313 18.34 7.26313 18.38C7.27647 18.42 7.2498 18.4333 7.18313 18.42L7.16313 18.7L7.10313 18.66C7.02313 18.82 6.93647 19.04 6.84313 19.32C6.7498 19.6 6.7098 19.8333 6.72313 20.02C6.7098 20.02 6.67647 20.0133 6.62313 20C6.58313 19.9867 6.56313 19.9933 6.56313 20.02V20.4L6.62313 20.44L6.56313 20.7L6.50313 20.72L6.54313 20.92H6.50313L6.52313 21.1C6.49647 21.0733 6.4698 21.06 6.44313 21.06C6.41647 21.06 6.40313 21.0867 6.40313 21.14C6.40313 21.1667 6.4098 21.1933 6.42313 21.22C6.4498 21.26 6.47647 21.2733 6.50313 21.26V21.44H6.40313C6.3898 21.4533 6.39647 21.4667 6.42313 21.48C6.46313 21.5067 6.48313 21.5333 6.48313 21.56L6.40313 21.64L6.50313 21.66L6.52313 22.02C6.5098 22.0067 6.5098 22.04 6.52313 22.12C6.53647 22.1733 6.53647 22.1867 6.52313 22.16C6.52313 22.16 6.52313 22.1467 6.52313 22.12C6.5098 22.0667 6.49647 22.0467 6.48313 22.06L6.44313 22.22H6.50313L6.56313 22.76C6.57647 22.7733 6.5898 22.7733 6.60313 22.76C6.6298 22.7467 6.64313 22.74 6.64313 22.74L6.72313 23.2C6.76313 23.2133 6.7698 23.2 6.74313 23.16C6.7298 23.1333 6.72313 23.12 6.72313 23.12C6.7898 23.0667 6.82313 23.06 6.82313 23.1C6.83647 23.1533 6.8498 23.1867 6.86313 23.2L6.90313 23.18L7.02313 23.36V23.42ZM6.90313 12.42C6.98313 12.34 7.08313 12.2733 7.20313 12.22C7.33647 12.1667 7.45647 12.1267 7.56313 12.1L7.60313 11.98H7.66313C7.66313 11.9267 7.68313 11.8867 7.72313 11.86C7.77647 11.82 7.81647 11.78 7.84313 11.74C7.89647 11.7667 7.93647 11.78 7.96313 11.78L7.92313 11.66L8.10313 11.52L8.16313 11.62L8.22313 11.58L8.26313 11.4L8.24313 11.36L8.62313 10.94H8.70313V11.06C8.7298 11.0733 8.73647 11.0533 8.72313 11C8.72313 10.9467 8.72313 10.9133 8.72313 10.9L8.68313 10.88C8.72313 10.8533 8.7698 10.8133 8.82313 10.76C8.87647 10.7067 8.9098 10.6533 8.92313 10.6C8.9498 10.6 8.97647 10.6 9.00313 10.6C9.0298 10.6 9.0498 10.62 9.06313 10.66H9.10313V10.58C9.0498 10.5533 9.02313 10.5133 9.02313 10.46H9.04313L9.10313 10.5C9.10313 10.4333 9.11647 10.3733 9.14313 10.32C9.1698 10.2533 9.21647 10.2133 9.28313 10.2C9.3098 10.1867 9.3298 10.18 9.34313 10.18C9.3698 10.1667 9.38313 10.1467 9.38313 10.12L9.44313 10.06L9.42313 9.98C9.4498 9.96667 9.48313 9.92667 9.52313 9.86C9.57647 9.79333 9.60313 9.74 9.60313 9.7H9.66313C9.67647 9.67333 9.6898 9.64 9.70313 9.6C9.7298 9.54667 9.76313 9.50667 9.80313 9.48L9.84313 9.52C9.8698 9.45333 9.8898 9.39333 9.90313 9.34C9.9298 9.28667 9.95647 9.23333 9.98313 9.18L10.0831 9.2L10.1231 9C10.1498 9 10.1898 8.98667 10.2431 8.96C10.2165 8.96 10.2031 8.94 10.2031 8.9C10.2031 8.83333 10.2365 8.74 10.3031 8.62C10.3831 8.5 10.4298 8.42 10.4431 8.38H10.2031V8.42C10.0831 8.43333 9.95647 8.47333 9.82313 8.54C9.6898 8.59333 9.56313 8.64 9.44313 8.68L9.40313 8.8L9.22313 8.92H9.10313V8.96C9.10313 9 9.07647 9.03333 9.02313 9.06C8.98313 9.08667 8.9498 9.12667 8.92313 9.18H8.82313C8.83647 9.23333 8.79647 9.29333 8.70313 9.36C8.6098 9.41333 8.53647 9.44667 8.48313 9.46C8.4698 9.55333 8.42313 9.62667 8.34313 9.68C8.27647 9.73333 8.22313 9.8 8.18313 9.88L8.12313 9.84C8.09647 9.93333 8.02313 10.0133 7.90313 10.08C7.79647 10.1333 7.76313 10.2133 7.80313 10.32L7.68313 10.38C7.68313 10.5133 7.61647 10.5933 7.48313 10.62C7.48313 10.6733 7.46313 10.72 7.42313 10.76H7.40313L7.44313 10.68H7.38313V10.8L7.30313 10.78L7.32313 10.66H7.30313C7.30313 10.7 7.29647 10.7733 7.28313 10.88C7.2698 10.9867 7.23647 11.0533 7.18313 11.08C7.1698 11.0933 7.1498 11.0933 7.12313 11.08C7.1098 11.0533 7.10313 11.0533 7.10313 11.08H7.06313L7.12313 11.2C7.0698 11.24 7.0298 11.2867 7.00313 11.34C6.97647 11.3933 6.9498 11.4467 6.92313 11.5C6.89647 11.5133 6.8498 11.52 6.78313 11.52C6.79647 11.5467 6.7898 11.58 6.76313 11.62L6.84313 11.66C6.80313 11.7133 6.7698 11.7667 6.74313 11.82C6.7298 11.8733 6.7098 11.9333 6.68313 12L6.64313 11.98V12.32L6.90313 12.42ZM5.70313 11.98C5.7698 12.0067 5.80313 12 5.80313 11.96L5.70313 11.9C5.70313 11.9133 5.70313 11.9333 5.70313 11.96C5.70313 11.9733 5.70313 11.98 5.70313 11.98ZM9.48313 17.48V17.5V17.48Z" fill="#1F0E2F"/>
</svg>
